<?xml version="1.0" encoding="UTF-8" standalone="no"?>
<!-- Created with Inkscape (http://www.inkscape.org/) -->
<svg
   xmlns:dc="http://purl.org/dc/elements/1.1/"
   xmlns:cc="http://web.resource.org/cc/"
   xmlns:rdf="http://www.w3.org/1999/02/22-rdf-syntax-ns#"
   xmlns:svg="http://www.w3.org/2000/svg"
   xmlns="http://www.w3.org/2000/svg"
   xmlns:sodipodi="http://sodipodi.sourceforge.net/DTD/sodipodi-0.dtd"
   xmlns:inkscape="http://www.inkscape.org/namespaces/inkscape"
   width="744.09448819"
   height="1052.3622047"
   id="svg2"
   sodipodi:version="0.32"
   inkscape:version="0.45.1"
   sodipodi:docbase="/Users/david/Desktop"
   sodipodi:docname="drawing.svg"
   inkscape:output_extension="org.inkscape.output.svg.inkscape"
   inkscape:export-filename="/Users/david/Desktop/drawing.png"
   inkscape:export-xdpi="90"
   inkscape:export-ydpi="90">
  <defs
     id="defs4" />
  <sodipodi:namedview
     id="base"
     pagecolor="#ffffff"
     bordercolor="#666666"
     borderopacity="1.0"
     gridtolerance="10000"
     guidetolerance="10"
     objecttolerance="10"
     inkscape:pageopacity="0.0"
     inkscape:pageshadow="2"
     inkscape:zoom="0.90942994"
     inkscape:cx="376.48722"
     inkscape:cy="541.36469"
     inkscape:document-units="px"
     inkscape:current-layer="layer2"
     inkscape:window-width="897"
     inkscape:window-height="661"
     inkscape:window-x="1463"
     inkscape:window-y="243" />
  <metadata
     id="metadata7">
    <rdf:RDF>
      <cc:Work
         rdf:about="">
        <dc:format>image/svg+xml</dc:format>
        <dc:type
           rdf:resource="http://purl.org/dc/dcmitype/StillImage" />
      </cc:Work>
    </rdf:RDF>
  </metadata>
  <g
     inkscape:label="Layer 1"
     inkscape:groupmode="layer"
     id="layer1">
    <path
       sodipodi:nodetypes="ccccccccc"
       id="path3135"
       d="M 212.83168,356.84915 L 503.66743,324.68825 C 514.61234,323.64963 524.58375,331.73349 526.02484,342.81349 L 564.75187,640.57197 C 566.19296,651.65198 558.54186,661.40812 547.59694,662.44673 L 229.7612,692.60763 C 218.81628,693.64624 208.84488,685.56238 207.40379,674.48237 L 195.67675,378.7239 C 194.23567,367.6439 201.88676,357.88776 212.83168,356.84915 z "
       style="fill:#2e218e;fill-opacity:1;fill-rule:evenodd;stroke:#afb7c4;stroke-width:30;stroke-linecap:butt;stroke-linejoin:miter;stroke-miterlimit:4;stroke-opacity:1"
       inkscape:export-filename="/Users/david/Desktop/path4106.png"
       inkscape:export-xdpi="90"
       inkscape:export-ydpi="90" />
    <path
       style="fill:none;fill-opacity:1;fill-rule:evenodd;stroke:#c8d0df;stroke-width:30;stroke-linecap:butt;stroke-linejoin:miter;stroke-miterlimit:4;stroke-opacity:1"
       d="M 216.83168,352.16866 L 507.66743,320.00776 C 518.61234,318.96914 528.58375,327.053 530.02484,338.133 L 568.75187,635.89148 C 570.19296,646.97149 562.54186,656.72763 551.59694,657.76624 L 233.7612,687.92714 C 222.81628,688.96575 212.84488,680.88189 211.40379,669.80188 L 199.67675,374.04341 C 198.23567,362.96341 205.88676,353.20727 216.83168,352.16866 z "
       id="path2221"
       sodipodi:nodetypes="ccccccccc"
       inkscape:export-filename="/Users/david/Desktop/path4106.png"
       inkscape:export-xdpi="90"
       inkscape:export-ydpi="90" />
    <path
       style="opacity:0.2483649;fill:#e2defd;fill-opacity:1;fill-rule:evenodd;stroke:#e8e9ef;stroke-width:30;stroke-linecap:butt;stroke-linejoin:miter;stroke-miterlimit:4;stroke-opacity:1"
       d="M 505.71875,324.59375 C 505.04414,324.58889 504.34031,324.62259 503.65625,324.6875 L 212.84375,356.84375 C 201.89883,357.88236 194.24643,367.63874 195.6875,378.71875 L 200.75,506.15625 C 231.82886,486.63675 272.06785,468.90424 323,459.375 C 407.27865,443.60673 480.8503,407.14776 530.5,377.15625 L 526.03125,342.8125 C 524.68023,332.425 515.83786,324.66664 505.71875,324.59375 z "
       id="path4106"
       inkscape:export-xdpi="90"
       inkscape:export-ydpi="90" />
  </g>
  <g
     inkscape:groupmode="layer"
     id="layer2"
     inkscape:label="seta" />
</svg>
